<?xml version="1.0" encoding="UTF-8" standalone="no"?>
<!-- Created with Inkscape (http://www.inkscape.org/) -->

<svg
   xmlns:dc="http://purl.org/dc/elements/1.1/"
   xmlns:cc="http://creativecommons.org/ns#"
   xmlns:rdf="http://www.w3.org/1999/02/22-rdf-syntax-ns#"
   xmlns:svg="http://www.w3.org/2000/svg"
   xmlns="http://www.w3.org/2000/svg"
   xmlns:sodipodi="http://sodipodi.sourceforge.net/DTD/sodipodi-0.dtd"
   xmlns:inkscape="http://www.inkscape.org/namespaces/inkscape"
   sodipodi:docname="shoppinglist-icon-apple.svg"
   inkscape:version="0.91 r13725"
   version="1.1"
   id="svg2"
   viewBox="0 0 154.99999 154.99999"
   height="155"
   width="155"
   inkscape:export-filename="/home/brecht/Documents/WebApps/Shoppinglist/images/shoppinglist-icon-32.png"
   inkscape:export-xdpi="14.4"
   inkscape:export-ydpi="14.4">
  <sodipodi:namedview
     inkscape:snap-grids="true"
     inkscape:object-paths="true"
     inkscape:object-nodes="true"
     units="px"
     inkscape:window-maximized="1"
     inkscape:window-y="24"
     inkscape:window-x="59"
     inkscape:window-height="1056"
     inkscape:window-width="1861"
     showgrid="true"
     inkscape:current-layer="g6370"
     inkscape:document-units="px"
     inkscape:cy="77.770882"
     inkscape:cx="111.91079"
     inkscape:zoom="3.959798"
     inkscape:pageshadow="2"
     inkscape:pageopacity="0.0"
     borderopacity="1.0"
     bordercolor="#666666"
     pagecolor="#ffffff"
     id="base">
    <inkscape:grid
       type="xygrid"
       id="grid4589" />
  </sodipodi:namedview>
  <defs
     id="defs4" />
  <metadata
     id="metadata7">
    <rdf:RDF>
      <cc:Work
         rdf:about="">
        <dc:format>image/svg+xml</dc:format>
        <dc:type
           rdf:resource="http://purl.org/dc/dcmitype/StillImage" />
        <dc:title></dc:title>
      </cc:Work>
    </rdf:RDF>
  </metadata>
  <g
     inkscape:label="shoppinglist"
     inkscape:groupmode="layer"
     id="layer1"
     transform="translate(0,-897.36222)"
     style="display:inline;opacity:1">
    <rect
       y="898.36224"
       x="1.0000057"
       height="157"
       width="156.99997"
       id="rect4595"
       style="opacity:0.5;fill:#1e241e;fill-opacity:1;stroke:none;stroke-width:5;stroke-linecap:round;stroke-linejoin:round;stroke-miterlimit:4;stroke-dasharray:none;stroke-opacity:1" />
    <rect
       style="opacity:1;fill:#5ebc5e;fill-opacity:1;stroke:none;stroke-width:5;stroke-linecap:round;stroke-linejoin:round;stroke-miterlimit:4;stroke-dasharray:none;stroke-opacity:1"
       id="rect4583"
       width="154.99998"
       height="154.99995"
       x="0"
       y="897.36224" />
    <g
       id="g6414"
       transform="translate(-19.999999,125.00001)">
      <rect
         y="893.36224"
         x="65.999992"
         height="14.999972"
         width="94.999977"
         id="rect6416"
         style="opacity:1;fill:#3e883e;fill-opacity:1;stroke:none;stroke-width:5;stroke-linecap:round;stroke-linejoin:round;stroke-miterlimit:4;stroke-dasharray:none;stroke-opacity:1" />
      <rect
         style="opacity:1;fill:#55d57a;fill-opacity:1;stroke:none;stroke-width:5;stroke-linecap:round;stroke-linejoin:round;stroke-miterlimit:4;stroke-dasharray:none;stroke-opacity:1"
         id="rect6418"
         width="94.999977"
         height="14.999972"
         x="64.999992"
         y="892.36224" />
      <rect
         style="opacity:0.5;fill:#1d541d;fill-opacity:1;stroke:none;stroke-width:5;stroke-linecap:round;stroke-linejoin:round;stroke-miterlimit:4;stroke-dasharray:none;stroke-opacity:1"
         id="rect6420"
         width="14.999998"
         height="14.999972"
         x="35.999996"
         y="893.36224" />
      <rect
         y="892.36224"
         x="34.999996"
         height="14.999972"
         width="14.999998"
         id="rect6422"
         style="opacity:1;fill:#55d57a;fill-opacity:1;stroke:none;stroke-width:5;stroke-linecap:round;stroke-linejoin:round;stroke-miterlimit:4;stroke-dasharray:none;stroke-opacity:1" />
    </g>
    <g
       id="g6374"
       transform="translate(-19.999999,45.000027)">
      <rect
         y="893.36224"
         x="65.999992"
         height="14.999972"
         width="94.999977"
         id="rect6376"
         style="opacity:1;fill:#3e883e;fill-opacity:1;stroke:none;stroke-width:5;stroke-linecap:round;stroke-linejoin:round;stroke-miterlimit:4;stroke-dasharray:none;stroke-opacity:1" />
      <rect
         style="opacity:1;fill:#55d57a;fill-opacity:1;stroke:none;stroke-width:5;stroke-linecap:round;stroke-linejoin:round;stroke-miterlimit:4;stroke-dasharray:none;stroke-opacity:1"
         id="rect6378"
         width="94.999977"
         height="14.999972"
         x="64.999992"
         y="892.36224" />
      <rect
         style="opacity:0.5;fill:#1d541d;fill-opacity:1;stroke:none;stroke-width:5;stroke-linecap:round;stroke-linejoin:round;stroke-miterlimit:4;stroke-dasharray:none;stroke-opacity:1"
         id="rect6380"
         width="14.999998"
         height="14.999972"
         x="35.999996"
         y="893.36224" />
      <rect
         y="892.36224"
         x="34.999996"
         height="14.999972"
         width="14.999998"
         id="rect6382"
         style="opacity:1;fill:#55d57a;fill-opacity:1;stroke:none;stroke-width:5;stroke-linecap:round;stroke-linejoin:round;stroke-miterlimit:4;stroke-dasharray:none;stroke-opacity:1" />
    </g>
    <g
       transform="translate(-19.999999,24.00003)"
       id="g4945">
      <rect
         style="opacity:1;fill:#3e883e;fill-opacity:1;stroke:none;stroke-width:5;stroke-linecap:round;stroke-linejoin:round;stroke-miterlimit:4;stroke-dasharray:none;stroke-opacity:1"
         id="rect4947"
         width="94.999977"
         height="14.999972"
         x="65.999992"
         y="893.36224" />
      <rect
         y="892.36224"
         x="64.999992"
         height="14.999972"
         width="94.999977"
         id="rect4949"
         style="opacity:1;fill:#55d57a;fill-opacity:1;stroke:none;stroke-width:5;stroke-linecap:round;stroke-linejoin:round;stroke-miterlimit:4;stroke-dasharray:none;stroke-opacity:1" />
      <rect
         y="893.36224"
         x="35.999996"
         height="14.999972"
         width="14.999998"
         id="rect4951"
         style="opacity:0.5;fill:#1d541d;fill-opacity:1;stroke:none;stroke-width:5;stroke-linecap:round;stroke-linejoin:round;stroke-miterlimit:4;stroke-dasharray:none;stroke-opacity:1" />
      <rect
         style="opacity:1;fill:#55d57a;fill-opacity:1;stroke:none;stroke-width:5;stroke-linecap:round;stroke-linejoin:round;stroke-miterlimit:4;stroke-dasharray:none;stroke-opacity:1"
         id="rect4953"
         width="14.999998"
         height="14.999972"
         x="34.999996"
         y="892.36224" />
    </g>
    <g
       transform="translate(-19.999999,65.000025)"
       id="g6384">
      <rect
         style="opacity:1;fill:#3e883e;fill-opacity:1;stroke:none;stroke-width:5;stroke-linecap:round;stroke-linejoin:round;stroke-miterlimit:4;stroke-dasharray:none;stroke-opacity:1"
         id="rect6386"
         width="94.999977"
         height="14.999972"
         x="65.999992"
         y="893.36224" />
      <rect
         y="892.36224"
         x="64.999992"
         height="14.999972"
         width="94.999977"
         id="rect6388"
         style="opacity:1;fill:#55d57a;fill-opacity:1;stroke:none;stroke-width:5;stroke-linecap:round;stroke-linejoin:round;stroke-miterlimit:4;stroke-dasharray:none;stroke-opacity:1" />
      <rect
         y="893.36224"
         x="35.999996"
         height="14.999972"
         width="14.999998"
         id="rect6390"
         style="opacity:0.5;fill:#1d541d;fill-opacity:1;stroke:none;stroke-width:5;stroke-linecap:round;stroke-linejoin:round;stroke-miterlimit:4;stroke-dasharray:none;stroke-opacity:1" />
      <rect
         style="opacity:1;fill:#55d57a;fill-opacity:1;stroke:none;stroke-width:5;stroke-linecap:round;stroke-linejoin:round;stroke-miterlimit:4;stroke-dasharray:none;stroke-opacity:1"
         id="rect6392"
         width="14.999998"
         height="14.999972"
         x="34.999996"
         y="892.36224" />
    </g>
    <g
       id="g6394"
       transform="translate(-19.999999,85.000022)">
      <rect
         y="893.36224"
         x="65.999992"
         height="14.999972"
         width="94.999977"
         id="rect6396"
         style="opacity:1;fill:#3e883e;fill-opacity:1;stroke:none;stroke-width:5;stroke-linecap:round;stroke-linejoin:round;stroke-miterlimit:4;stroke-dasharray:none;stroke-opacity:1" />
      <rect
         style="opacity:1;fill:#55d57a;fill-opacity:1;stroke:none;stroke-width:5;stroke-linecap:round;stroke-linejoin:round;stroke-miterlimit:4;stroke-dasharray:none;stroke-opacity:1"
         id="rect6398"
         width="94.999977"
         height="14.999972"
         x="64.999992"
         y="892.36224" />
      <rect
         style="opacity:0.5;fill:#1d541d;fill-opacity:1;stroke:none;stroke-width:5;stroke-linecap:round;stroke-linejoin:round;stroke-miterlimit:4;stroke-dasharray:none;stroke-opacity:1"
         id="rect6400"
         width="14.999998"
         height="14.999972"
         x="35.999996"
         y="893.36224" />
      <rect
         y="892.36224"
         x="34.999996"
         height="14.999972"
         width="14.999998"
         id="rect6402"
         style="opacity:1;fill:#55d57a;fill-opacity:1;stroke:none;stroke-width:5;stroke-linecap:round;stroke-linejoin:round;stroke-miterlimit:4;stroke-dasharray:none;stroke-opacity:1" />
    </g>
    <g
       transform="translate(-19.999999,105.00002)"
       id="g6404">
      <rect
         style="opacity:1;fill:#3e883e;fill-opacity:1;stroke:none;stroke-width:5;stroke-linecap:round;stroke-linejoin:round;stroke-miterlimit:4;stroke-dasharray:none;stroke-opacity:1"
         id="rect6406"
         width="94.999977"
         height="14.999972"
         x="65.999992"
         y="893.36224" />
      <rect
         y="892.36224"
         x="64.999992"
         height="14.999972"
         width="94.999977"
         id="rect6408"
         style="opacity:1;fill:#55d57a;fill-opacity:1;stroke:none;stroke-width:5;stroke-linecap:round;stroke-linejoin:round;stroke-miterlimit:4;stroke-dasharray:none;stroke-opacity:1" />
      <rect
         y="893.36224"
         x="35.999996"
         height="14.999972"
         width="14.999998"
         id="rect6410"
         style="opacity:0.5;fill:#1d541d;fill-opacity:1;stroke:none;stroke-width:5;stroke-linecap:round;stroke-linejoin:round;stroke-miterlimit:4;stroke-dasharray:none;stroke-opacity:1" />
      <rect
         style="opacity:1;fill:#55d57a;fill-opacity:1;stroke:none;stroke-width:5;stroke-linecap:round;stroke-linejoin:round;stroke-miterlimit:4;stroke-dasharray:none;stroke-opacity:1"
         id="rect6412"
         width="14.999998"
         height="14.999972"
         x="34.999996"
         y="892.36224" />
    </g>
    <g
       id="g6370"
       transform="translate(239.99998,0)">
      <path
         id="rect5537"
         d="m -102.3789,920.48923 c 0.0489,0.007 0.0987,0.0126 0.14648,0.0215 -0.0479,-0.009 -0.0975,-0.0141 -0.14648,-0.0215 z m 0.82617,0.21094 c 0.0381,0.0145 0.0741,0.0313 0.11133,0.0469 -0.0374,-0.0156 -0.0731,-0.0324 -0.11133,-0.0469 z m 0.68554,0.3457 c 0.0131,0.009 0.028,0.0148 0.041,0.0234 -0.013,-0.009 -0.0278,-0.0149 -0.041,-0.0234 z m 0.54493,0.43359 c 0.17351,0.16715 0.33366,0.34614 0.470699,0.54102 1.503238,2.13775 0.793552,5.73976 -2.564449,6.30664 l -16.50391,3.01562 -25.79102,65.04492 c 4.58474,3.40218 8.03094,6.52614 10.06836,9.44144 2.43979,3.491 3.35205,7.1306 2.51367,10.2734 -0.8384,3.1428 -3.1185,5.1728 -5.23632,6.3516 -2.11784,1.1788 -4.08736,1.7187 -6.10743,1.7187 l -71.14453,0 c -1.31137,0.018 -2.29729,-0.4544 -2.96875,-1.1719 0.027,0.029 0.0482,0.062 0.0762,0.09 l 4.5625,4.5625 c 0.76637,-1.3235 2.18285,-2.2228 3.82227,-2.2226 2.44724,-2e-4 4.43184,1.9825 4.43164,4.4297 2e-4,2.4472 -1.9844,4.4318 -4.43164,4.4316 -1.22363,1e-4 -2.33095,-0.497 -3.13281,-1.2988 l 44.36911,44.3691 107.888671,0 0,-115.57034 -40.267581,-40.26758 c -0.0165,-0.0165 -0.0378,-0.0287 -0.0547,-0.0449 z m -24.36524,3.61719 c -0.34321,0.36213 -0.61919,0.79169 -0.80859,1.26953 0.1894,-0.47784 0.46753,-0.90741 0.81054,-1.26953 0,0 -0.002,0 -0.002,0 z m -90.91602,69.29492 21.83399,21.83393 50.29687,0 c 0.0652,0 1.36872,-0.2306 2.24219,-0.7168 0.8735,-0.4861 1.30261,-1.0169 1.41992,-1.457 0.11737,-0.4401 0.23194,-1.4069 -1.34961,-3.6699 -1.48289,-2.1218 -4.48859,-5.0989 -9.57617,-8.6953 l -62.45898,-6.16212 c -0.93698,-0.0926 -1.77715,-0.50699 -2.40821,-1.13281 z m 0.98633,21.83393 c -0.30201,0 -0.58153,0.024 -0.84961,0.068 0.268,-0.044 0.5477,-0.073 0.84961,-0.068 z m -1.11523,0.127 c -0.17657,0.041 -0.34538,0.091 -0.50586,0.1523 0.16028,-0.061 0.32953,-0.1112 0.50586,-0.1523 z m -0.73633,0.2441 c -0.18224,0.084 -0.3524,0.1797 -0.51172,0.2871 0.15918,-0.1074 0.32966,-0.2036 0.51172,-0.2871 z m -0.625,0.3575 c -0.18611,0.1359 -0.35319,0.2884 -0.50586,0.4531 0.15267,-0.1648 0.31972,-0.3171 0.50586,-0.4531 z m -0.63477,0.6113 c -0.10116,0.1223 -0.19499,0.2493 -0.27929,0.3828 0.0841,-0.1333 0.17837,-0.2607 0.27929,-0.3828 z m -0.40429,0.5957 c -0.0788,0.1444 -0.14855,0.2921 -0.20899,0.4453 0.0603,-0.153 0.1304,-0.301 0.20899,-0.4453 z m -0.27344,0.6035 c -0.0743,0.2138 -0.13222,0.4326 -0.17187,0.6562 0.0396,-0.2232 0.0979,-0.4428 0.17187,-0.6562 z m -0.18945,0.8008 c -0.0251,0.1747 -0.0388,0.3506 -0.043,0.5273 0.004,-0.1767 0.0179,-0.3526 0.043,-0.5273 z m -0.043,0.7578 c 0.005,0.1638 0.0185,0.3261 0.041,0.4883 -0.0224,-0.1616 -0.0365,-0.3251 -0.041,-0.4883 z m 0.0664,0.6797 c 0.0409,0.2226 0.0967,0.4417 0.17188,0.6543 -0.075,-0.2124 -0.13109,-0.432 -0.17188,-0.6543 z m 0.21094,0.7461 c 0.0672,0.1762 0.14707,0.3469 0.23828,0.5117 -0.0913,-0.165 -0.1711,-0.3353 -0.23828,-0.5117 z m 0.35742,0.707 c 0.0869,0.137 0.18246,0.2674 0.28711,0.3926 -0.10456,-0.1251 -0.20031,-0.2557 -0.28711,-0.3926 z m 75.02344,2.9746 c 2.44725,-2e-4 4.43184,1.9825 4.43164,4.4297 2e-4,2.4472 -1.98439,4.4318 -4.43164,4.4316 -2.44725,2e-4 -4.43184,-1.9844 -4.43164,-4.4316 -2e-4,-2.4472 1.98439,-4.4299 4.43164,-4.4297 z m -70.33203,3.0371 c -0.0389,0.1124 -0.0756,0.2256 -0.10547,0.3418 0.0286,-0.1168 0.0678,-0.2288 0.10547,-0.3418 z m -0.16797,0.6446 c -0.0441,0.2434 -0.0762,0.4912 -0.0762,0.748 -2e-5,-0.2564 0.0344,-0.5036 0.0762,-0.748 z"
         style="opacity:1;fill:#1b391e;fill-opacity:0.29803922;stroke:none;stroke-width:5;stroke-linecap:round;stroke-linejoin:round;stroke-miterlimit:4;stroke-dasharray:none;stroke-opacity:1"
         inkscape:connector-curvature="0" />
      <path
         sodipodi:nodetypes="ccccccccccscssccsssscccscccccccccccc"
         style="color:#000000;font-style:normal;font-variant:normal;font-weight:normal;font-stretch:normal;font-size:medium;line-height:normal;font-family:sans-serif;text-indent:0;text-align:start;text-decoration:none;text-decoration-line:none;text-decoration-style:solid;text-decoration-color:#000000;letter-spacing:normal;word-spacing:normal;text-transform:none;direction:ltr;block-progression:tb;writing-mode:lr-tb;baseline-shift:baseline;text-anchor:start;white-space:normal;clip-rule:nonzero;display:inline;overflow:visible;visibility:visible;opacity:0.75;isolation:auto;mix-blend-mode:normal;color-interpolation:sRGB;color-interpolation-filters:linearRGB;solid-color:#000000;solid-opacity:1;fill:#9ccd9e;fill-opacity:0.63921569;fill-rule:evenodd;stroke:none;stroke-width:9.99999905;stroke-linecap:round;stroke-linejoin:round;stroke-miterlimit:4;stroke-dasharray:none;stroke-dashoffset:0;stroke-opacity:1;color-rendering:auto;image-rendering:auto;shape-rendering:auto;text-rendering:auto;enable-background:accumulate"
         d="m -103.17615,920.43408 c -0.22527,0.006 -0.44964,0.0306 -0.6707,0.0743 l -18.66938,3.41253 c -1.34829,0.24687 -2.47425,1.17098 -2.97933,2.44523 l -8.20678,20.69392 -83.31752,2.068 c -2.3226,0.0575 -4.10074,2.08671 -3.85342,4.39681 l 4.11579,38.46751 c 0.2007,1.87234 1.68759,3.34693 3.56155,3.53203 l 62.46058,6.16209 c 5.08758,3.5964 8.09323,6.574 9.57612,8.6958 1.58155,2.263 1.46654,3.2301 1.34917,3.6702 -0.11731,0.4401 -0.5471,0.9702 -1.4206,1.4563 -0.87347,0.4862 -2.17669,0.7157 -2.24186,0.7157 l -71.14554,0 c -5.37475,-0.076 -5.37475,8.025 0,7.9491 l 71.14554,0 c 2.02007,0 3.98989,-0.5399 6.10773,-1.7187 2.11782,-1.1788 4.39679,-3.2102 5.23519,-6.353 0.83838,-3.1428 -0.0738,-6.7822 -2.51359,-10.2732 -2.03742,-2.9153 -5.48353,-6.03888 -10.06827,-9.44106 l 25.79247,-65.04401 16.50204,-3.0166 c 3.358006,-0.56688 4.069062,-4.16831 2.565824,-6.30606 -0.674964,-0.95987 -1.796364,-1.62465 -3.325014,-1.58713 z m -105.949,104.99562 c -2.44725,-2e-4 -4.43118,1.9838 -4.43098,4.431 -2e-4,2.4472 1.98373,4.4312 4.43098,4.431 2.44724,2e-4 4.43116,-1.9838 4.43096,-4.431 2e-4,-2.4472 -1.98372,-4.4312 -4.43096,-4.431 z m 66.14478,0 c -2.44725,-2e-4 -4.43118,1.9838 -4.43098,4.431 -2e-4,2.4472 1.98373,4.4312 4.43098,4.431 2.44725,2e-4 4.43118,-1.9838 4.43098,-4.431 2e-4,-2.4472 -1.98373,-4.4312 -4.43098,-4.431 z"
         id="path5535"
         inkscape:connector-curvature="0" />
    </g>
  </g>
  <g
     inkscape:groupmode="layer"
     id="layer3"
     inkscape:label="helpers"
     style="display:none"
     transform="translate(0,-44.999995)">
    <g
       style="display:inline;opacity:1;stroke:#3c903c;stroke-opacity:1"
       id="g4649"
       transform="translate(-244.10716,-952.71949)">
      <g
         id="g4651"
         style="stroke:#3c903c;stroke-width:9.99999905;stroke-miterlimit:4;stroke-dasharray:none;stroke-opacity:1">
        <path
           sodipodi:nodetypes="ccccc"
           inkscape:connector-curvature="0"
           id="path4653"
           d="m 192.43406,905.38503 -23.48605,4.29315 -34.85026,87.88327 c 30.04104,20.57585 12.83413,28.31745 7.58764,28.31745 l -89.50191,0"
           style="fill:none;fill-rule:evenodd;stroke:#3c903c;stroke-width:9.99999905;stroke-linecap:round;stroke-linejoin:round;stroke-miterlimit:4;stroke-dasharray:none;stroke-opacity:1" />
        <path
           inkscape:connector-curvature="0"
           id="path4655"
           d="m 157.14286,938.7908 -107.857146,2.67857 5.178572,48.39286 79.642854,7.85714"
           style="fill:none;fill-rule:evenodd;stroke:#3c903c;stroke-width:9.99999905;stroke-linecap:round;stroke-linejoin:round;stroke-miterlimit:4;stroke-dasharray:none;stroke-opacity:1" />
      </g>
      <ellipse
         style="opacity:1;fill:none;fill-opacity:1;stroke:#3c903c;stroke-width:4.99999952;stroke-linecap:round;stroke-linejoin:round;stroke-miterlimit:4;stroke-dasharray:none;stroke-opacity:1"
         id="ellipse4657"
         cx="63.76585"
         cy="1036.0135"
         rx="7.2152905"
         ry="7.2152958" />
      <ellipse
         ry="7.2152958"
         rx="7.2152905"
         cy="1036.0135"
         cx="145.73013"
         id="ellipse4659"
         style="opacity:1;fill:none;fill-opacity:1;stroke:#3c903c;stroke-width:4.99999952;stroke-linecap:round;stroke-linejoin:round;stroke-miterlimit:4;stroke-dasharray:none;stroke-opacity:1" />
      <g
         id="g4661"
         style="stroke:#3c903c;stroke-width:2.99999952;stroke-miterlimit:4;stroke-dasharray:none;stroke-opacity:1">
        <g
           style="stroke:#3c903c;stroke-width:2.99999952;stroke-miterlimit:4;stroke-dasharray:none;stroke-opacity:1"
           id="g4663">
          <path
             style="fill:none;fill-rule:evenodd;stroke:#3c903c;stroke-width:2.99999952;stroke-linecap:butt;stroke-linejoin:miter;stroke-miterlimit:4;stroke-dasharray:none;stroke-opacity:1"
             d="m 65.803572,942.27294 0,48.30358"
             id="path4665"
             inkscape:connector-curvature="0" />
          <path
             style="fill:none;fill-rule:evenodd;stroke:#3c903c;stroke-width:2.99999952;stroke-linecap:butt;stroke-linejoin:miter;stroke-miterlimit:4;stroke-dasharray:none;stroke-opacity:1"
             d="m 83.281256,940.93366 0,52.5"
             id="path4667"
             inkscape:connector-curvature="0" />
          <path
             style="fill:none;fill-rule:evenodd;stroke:#3c903c;stroke-width:2.99999952;stroke-linecap:butt;stroke-linejoin:miter;stroke-miterlimit:4;stroke-dasharray:none;stroke-opacity:1"
             d="m 100.75893,939.77294 0,55.44643"
             id="path4669"
             inkscape:connector-curvature="0" />
          <path
             style="fill:none;fill-rule:evenodd;stroke:#3c903c;stroke-width:2.99999952;stroke-linecap:butt;stroke-linejoin:miter;stroke-miterlimit:4;stroke-dasharray:none;stroke-opacity:1"
             d="m 118.23661,939.68366 0,56.60714"
             id="path4671"
             inkscape:connector-curvature="0" />
          <path
             style="fill:none;fill-rule:evenodd;stroke:#3c903c;stroke-width:2.99999952;stroke-linecap:butt;stroke-linejoin:miter;stroke-miterlimit:4;stroke-dasharray:none;stroke-opacity:1"
             d="m 135.71429,938.7908 0,51.25"
             id="path4673"
             inkscape:connector-curvature="0" />
        </g>
        <g
           id="g4675"
           style="stroke:#3c903c;stroke-width:2.99999952;stroke-miterlimit:4;stroke-dasharray:none;stroke-opacity:1">
          <path
             style="fill:none;fill-rule:evenodd;stroke:#3c903c;stroke-width:2.99999952;stroke-linecap:butt;stroke-linejoin:miter;stroke-miterlimit:4;stroke-dasharray:none;stroke-opacity:1"
             d="m 52.142857,959.32652 95.535713,0"
             id="path4677"
             inkscape:connector-curvature="0" />
          <path
             style="fill:none;fill-rule:evenodd;stroke:#3c903c;stroke-width:2.99999952;stroke-linecap:butt;stroke-linejoin:miter;stroke-miterlimit:4;stroke-dasharray:none;stroke-opacity:1"
             d="m 53.75,975.39794 89.28571,0"
             id="path4679"
             inkscape:connector-curvature="0" />
        </g>
      </g>
    </g>
    <path
       transform="translate(0,-852.36233)"
       inkscape:connector-curvature="0"
       id="path4863"
       d="m 7.5574324,820.0323 a 2.5388292,2.5388292 0 0 0 -0.42839,0.0477 l -11.92436,2.17953 a 2.5388292,2.5388292 0 0 0 -1.90294,1.56184 l -5.2417704,13.21846 -53.215861,1.31988 a 2.5388292,2.5388292 0 0 0 -2.461236,2.80828 l 2.628825,24.56971 a 2.5388292,2.5388292 0 0 0 2.274794,2.25592 l 39.893318,3.93579 c 3.25004,2.29727 5.17012,4.19985 6.11737,5.55517 1.01015,1.44531 0.93671,2.06308 0.86173,2.34414 -0.0749,0.28114 -0.34945,0.6186 -0.90734,0.92918 -0.55791,0.31058 -1.3903,0.45708 -1.43192,0.45708 l -45.441492,0 a 2.5388292,2.5388292 0 1 0 0,5.07725 l 1.706601,0 c -0.47746,0.75872 -0.758589,1.65189 -0.758602,2.60788 0,2.70924 2.223208,4.93141 4.932374,4.93141 2.709169,0 4.932379,-2.22217 4.932379,-4.93141 -2e-5,-0.95599 -0.28115,-1.84916 -0.75861,-2.60788 l 33.26725,0 c -0.47747,0.75872 -0.75859,1.65189 -0.7586,2.60788 0,2.70924 2.2232,4.93141 4.93237,4.93141 2.70917,0 4.93238,-2.22217 4.93236,-4.93141 -10e-6,-1.75824 -0.9401,-3.30773 -2.33826,-4.18164 1.10747,-0.78249 2.15975,-1.94243 2.59708,-3.58183 0.5355,-2.00741 -0.0471,-4.33085 -1.60544,-6.56055 -1.30133,-1.86204 -3.50241,-3.85815 -6.43073,-6.03108 l 16.4739704,-41.5444 10.54002,-1.92682 a 2.5388292,2.5388292 0 0 0 -0.48489,-5.04139 z m -21.5312904,22.13523 -2.78944,7.03458 -3.6869,0 0,-6.87396 6.47634,-0.16062 z m -7.99949,0.19831 0,6.83627 -7.35095,0 0,-6.65383 7.35095,-0.18244 z m -8.8741,0.22114 0,6.61513 -7.34996,0 0,-6.43268 7.34996,-0.18245 z m -8.87311,0.22014 0,6.39499 -7.35096,0 0,-6.21253 7.35096,-0.18246 z m -8.87411,0.22015 0,6.17484 -7.35095,0 0,-5.9924 7.35095,-0.18244 z m -8.874105,0.22113 0,5.95371 -4.181703,0 -0.62473,-5.83475 4.806433,-0.11896 z m -4.019077,7.47687 4.019077,0 0,6.63696 -3.309069,0 -0.710008,-6.63696 z m 5.542232,0 7.35095,0 0,6.63696 -7.35095,0 0,-6.63696 z m 8.8741,0 7.35096,0 0,6.63696 -7.35096,0 0,-6.63696 z m 8.87411,0 7.34996,0 0,6.63696 -7.34996,0 0,-6.63696 z m 8.87311,0 7.35095,0 0,6.63696 -7.35095,0 0,-6.63696 z m 8.8741,0 3.08298,0 -2.63278,6.63696 -0.4502,0 0,-6.63696 z m -40.164021,8.16011 3.145446,0 0,4.5239 -2.690287,-0.26587 -0.455159,-4.25803 z m 4.668601,0 7.35095,0 0,5.39943 -7.35095,-0.72581 0,-4.67362 z m 8.8741,0 7.35096,0 0,6.27504 -7.35096,-0.72582 0,-5.54922 z m 8.87411,0 7.34996,0 0,7.15065 -7.34996,-0.72589 0,-6.42476 z m 8.87311,0 7.35095,0 0,3.45385 -1.74426,4.39989 -5.60669,-0.55338 0,-7.30036 z m -28.417169,27.61988 c 1.337209,0 2.393779,1.05744 2.393799,2.39472 0,1.33727 -1.05657,2.39293 -2.393799,2.39293 -1.337213,0 -2.393802,-1.05566 -2.393802,-2.39293 2.5e-5,-1.33728 1.056602,-2.39472 2.393802,-2.39472 z m 41.614789,0 c 1.3372,0 2.39378,1.05744 2.39379,2.39472 0,1.33727 -1.05659,2.39293 -2.39379,2.39293 -1.33722,0 -2.3938,-1.05566 -2.3938,-2.39293 2e-5,-1.33728 1.05659,-2.39472 2.3938,-2.39472 z"
       style="color:#000000;font-style:normal;font-variant:normal;font-weight:normal;font-stretch:normal;font-size:medium;line-height:normal;font-family:sans-serif;text-indent:0;text-align:start;text-decoration:none;text-decoration-line:none;text-decoration-style:solid;text-decoration-color:#000000;letter-spacing:normal;word-spacing:normal;text-transform:none;direction:ltr;block-progression:tb;writing-mode:lr-tb;baseline-shift:baseline;text-anchor:start;white-space:normal;clip-rule:nonzero;display:inline;overflow:visible;visibility:visible;opacity:1;isolation:auto;mix-blend-mode:normal;color-interpolation:sRGB;color-interpolation-filters:linearRGB;solid-color:#000000;solid-opacity:1;fill:#000000;fill-opacity:1;fill-rule:evenodd;stroke:none;stroke-width:9.99999905;stroke-linecap:round;stroke-linejoin:round;stroke-miterlimit:4;stroke-dasharray:none;stroke-dashoffset:0;stroke-opacity:1;color-rendering:auto;image-rendering:auto;shape-rendering:auto;text-rendering:auto;enable-background:accumulate" />
    <g
       transform="translate(-244.10716,-787.71949)"
       id="g4865"
       style="display:inline;opacity:1;stroke:#3c903c;stroke-opacity:1">
      <g
         style="stroke:#3c903c;stroke-width:9.99999905;stroke-miterlimit:4;stroke-dasharray:none;stroke-opacity:1"
         id="g4867">
        <path
           style="fill:none;fill-rule:evenodd;stroke:#3c903c;stroke-width:9.99999905;stroke-linecap:round;stroke-linejoin:round;stroke-miterlimit:4;stroke-dasharray:none;stroke-opacity:1"
           d="m 192.43406,905.38503 -23.48605,4.29315 -34.85026,87.88327 c 30.04104,20.57585 12.83413,28.31745 7.58764,28.31745 l -89.50191,0"
           id="path4869"
           inkscape:connector-curvature="0"
           sodipodi:nodetypes="ccccc" />
        <path
           style="fill:#3c903c;fill-opacity:1;fill-rule:evenodd;stroke:#3c903c;stroke-width:9.99999905;stroke-linecap:round;stroke-linejoin:round;stroke-miterlimit:4;stroke-dasharray:none;stroke-opacity:1"
           d="m 157.14286,938.7908 -107.857146,2.67857 5.178572,48.39286 79.642854,7.85714"
           id="path4871"
           inkscape:connector-curvature="0" />
      </g>
      <ellipse
         ry="5.5737982"
         rx="5.5737939"
         cy="1038.0338"
         cx="59.093895"
         id="ellipse4873"
         style="opacity:1;fill:#3c903c;fill-opacity:1;stroke:none;stroke-width:4.99999952;stroke-linecap:round;stroke-linejoin:round;stroke-miterlimit:4;stroke-dasharray:none;stroke-opacity:1" />
      <ellipse
         style="opacity:1;fill:#3c903c;fill-opacity:1;stroke:none;stroke-width:4.99999952;stroke-linecap:round;stroke-linejoin:round;stroke-miterlimit:4;stroke-dasharray:none;stroke-opacity:1"
         id="ellipse4897"
         cx="142.30521"
         cy="1038.0338"
         rx="5.5737939"
         ry="5.5737982" />
    </g>
  </g>
</svg>
