<?xml version="1.0" encoding="UTF-8" standalone="no"?>
<!-- Created with Inkscape (http://www.inkscape.org/) -->

<svg
   xmlns:dc="http://purl.org/dc/elements/1.1/"
   xmlns:cc="http://creativecommons.org/ns#"
   xmlns:rdf="http://www.w3.org/1999/02/22-rdf-syntax-ns#"
   xmlns:svg="http://www.w3.org/2000/svg"
   xmlns="http://www.w3.org/2000/svg"
   xmlns:sodipodi="http://sodipodi.sourceforge.net/DTD/sodipodi-0.dtd"
   xmlns:inkscape="http://www.inkscape.org/namespaces/inkscape"
   sodipodi:docname="shoppinglist-icon.svg"
   inkscape:version="0.91 r13725"
   version="1.1"
   id="svg2"
   viewBox="0 0 199.99999 199.99999"
   height="200"
   width="200"
   inkscape:export-filename="/home/brecht/Documents/WebApps/Shoppinglist/images/shoppinglist-icon-32.png"
   inkscape:export-xdpi="14.4"
   inkscape:export-ydpi="14.4">
  <sodipodi:namedview
     inkscape:snap-grids="true"
     inkscape:object-paths="true"
     inkscape:object-nodes="true"
     units="px"
     inkscape:window-maximized="1"
     inkscape:window-y="24"
     inkscape:window-x="59"
     inkscape:window-height="1056"
     inkscape:window-width="1861"
     showgrid="false"
     inkscape:current-layer="g6370"
     inkscape:document-units="px"
     inkscape:cy="92.931388"
     inkscape:cx="107.4722"
     inkscape:zoom="2.8"
     inkscape:pageshadow="2"
     inkscape:pageopacity="0.0"
     borderopacity="1.0"
     bordercolor="#666666"
     pagecolor="#ffffff"
     id="base">
    <inkscape:grid
       type="xygrid"
       id="grid4589" />
  </sodipodi:namedview>
  <defs
     id="defs4" />
  <metadata
     id="metadata7">
    <rdf:RDF>
      <cc:Work
         rdf:about="">
        <dc:format>image/svg+xml</dc:format>
        <dc:type
           rdf:resource="http://purl.org/dc/dcmitype/StillImage" />
        <dc:title />
      </cc:Work>
    </rdf:RDF>
  </metadata>
  <g
     inkscape:label="shoppinglist"
     inkscape:groupmode="layer"
     id="layer1"
     transform="translate(0,-852.36223)"
     style="display:inline;opacity:1">
    <rect
       y="873.36224"
       x="21.000004"
       height="157"
       width="156.99997"
       id="rect4595"
       style="opacity:0.5;fill:#1e241e;fill-opacity:1;stroke:none;stroke-width:5;stroke-linecap:round;stroke-linejoin:round;stroke-miterlimit:4;stroke-dasharray:none;stroke-opacity:1" />
    <rect
       style="opacity:1;fill:#5ebc5e;fill-opacity:1;stroke:none;stroke-width:5;stroke-linecap:round;stroke-linejoin:round;stroke-miterlimit:4;stroke-dasharray:none;stroke-opacity:1"
       id="rect4583"
       width="154.99998"
       height="154.99995"
       x="19.999998"
       y="872.36224" />
    <g
       id="g6414"
       transform="translate(-7.7683665e-7,99.99997)">
      <rect
         y="893.36224"
         x="65.999992"
         height="14.999972"
         width="94.999977"
         id="rect6416"
         style="opacity:1;fill:#3e883e;fill-opacity:1;stroke:none;stroke-width:5;stroke-linecap:round;stroke-linejoin:round;stroke-miterlimit:4;stroke-dasharray:none;stroke-opacity:1" />
      <rect
         style="opacity:1;fill:#55d57a;fill-opacity:1;stroke:none;stroke-width:5;stroke-linecap:round;stroke-linejoin:round;stroke-miterlimit:4;stroke-dasharray:none;stroke-opacity:1"
         id="rect6418"
         width="94.999977"
         height="14.999972"
         x="64.999992"
         y="892.36224" />
      <rect
         style="opacity:0.5;fill:#1d541d;fill-opacity:1;stroke:none;stroke-width:5;stroke-linecap:round;stroke-linejoin:round;stroke-miterlimit:4;stroke-dasharray:none;stroke-opacity:1"
         id="rect6420"
         width="14.999998"
         height="14.999972"
         x="35.999996"
         y="893.36224" />
      <rect
         y="892.36224"
         x="34.999996"
         height="14.999972"
         width="14.999998"
         id="rect6422"
         style="opacity:1;fill:#55d57a;fill-opacity:1;stroke:none;stroke-width:5;stroke-linecap:round;stroke-linejoin:round;stroke-miterlimit:4;stroke-dasharray:none;stroke-opacity:1" />
    </g>
    <g
       id="g6374"
       transform="translate(-7.7683665e-7,19.999979)">
      <rect
         y="893.36224"
         x="65.999992"
         height="14.999972"
         width="94.999977"
         id="rect6376"
         style="opacity:1;fill:#3e883e;fill-opacity:1;stroke:none;stroke-width:5;stroke-linecap:round;stroke-linejoin:round;stroke-miterlimit:4;stroke-dasharray:none;stroke-opacity:1" />
      <rect
         style="opacity:1;fill:#55d57a;fill-opacity:1;stroke:none;stroke-width:5;stroke-linecap:round;stroke-linejoin:round;stroke-miterlimit:4;stroke-dasharray:none;stroke-opacity:1"
         id="rect6378"
         width="94.999977"
         height="14.999972"
         x="64.999992"
         y="892.36224" />
      <rect
         style="opacity:0.5;fill:#1d541d;fill-opacity:1;stroke:none;stroke-width:5;stroke-linecap:round;stroke-linejoin:round;stroke-miterlimit:4;stroke-dasharray:none;stroke-opacity:1"
         id="rect6380"
         width="14.999998"
         height="14.999972"
         x="35.999996"
         y="893.36224" />
      <rect
         y="892.36224"
         x="34.999996"
         height="14.999972"
         width="14.999998"
         id="rect6382"
         style="opacity:1;fill:#55d57a;fill-opacity:1;stroke:none;stroke-width:5;stroke-linecap:round;stroke-linejoin:round;stroke-miterlimit:4;stroke-dasharray:none;stroke-opacity:1" />
    </g>
    <g
       transform="translate(-7.7683665e-7,-1.0000184)"
       id="g4945">
      <rect
         style="opacity:1;fill:#3e883e;fill-opacity:1;stroke:none;stroke-width:5;stroke-linecap:round;stroke-linejoin:round;stroke-miterlimit:4;stroke-dasharray:none;stroke-opacity:1"
         id="rect4947"
         width="94.999977"
         height="14.999972"
         x="65.999992"
         y="893.36224" />
      <rect
         y="892.36224"
         x="64.999992"
         height="14.999972"
         width="94.999977"
         id="rect4949"
         style="opacity:1;fill:#55d57a;fill-opacity:1;stroke:none;stroke-width:5;stroke-linecap:round;stroke-linejoin:round;stroke-miterlimit:4;stroke-dasharray:none;stroke-opacity:1" />
      <rect
         y="893.36224"
         x="35.999996"
         height="14.999972"
         width="14.999998"
         id="rect4951"
         style="opacity:0.5;fill:#1d541d;fill-opacity:1;stroke:none;stroke-width:5;stroke-linecap:round;stroke-linejoin:round;stroke-miterlimit:4;stroke-dasharray:none;stroke-opacity:1" />
      <rect
         style="opacity:1;fill:#55d57a;fill-opacity:1;stroke:none;stroke-width:5;stroke-linecap:round;stroke-linejoin:round;stroke-miterlimit:4;stroke-dasharray:none;stroke-opacity:1"
         id="rect4953"
         width="14.999998"
         height="14.999972"
         x="34.999996"
         y="892.36224" />
    </g>
    <g
       transform="translate(-7.7683665e-7,39.999977)"
       id="g6384">
      <rect
         style="opacity:1;fill:#3e883e;fill-opacity:1;stroke:none;stroke-width:5;stroke-linecap:round;stroke-linejoin:round;stroke-miterlimit:4;stroke-dasharray:none;stroke-opacity:1"
         id="rect6386"
         width="94.999977"
         height="14.999972"
         x="65.999992"
         y="893.36224" />
      <rect
         y="892.36224"
         x="64.999992"
         height="14.999972"
         width="94.999977"
         id="rect6388"
         style="opacity:1;fill:#55d57a;fill-opacity:1;stroke:none;stroke-width:5;stroke-linecap:round;stroke-linejoin:round;stroke-miterlimit:4;stroke-dasharray:none;stroke-opacity:1" />
      <rect
         y="893.36224"
         x="35.999996"
         height="14.999972"
         width="14.999998"
         id="rect6390"
         style="opacity:0.5;fill:#1d541d;fill-opacity:1;stroke:none;stroke-width:5;stroke-linecap:round;stroke-linejoin:round;stroke-miterlimit:4;stroke-dasharray:none;stroke-opacity:1" />
      <rect
         style="opacity:1;fill:#55d57a;fill-opacity:1;stroke:none;stroke-width:5;stroke-linecap:round;stroke-linejoin:round;stroke-miterlimit:4;stroke-dasharray:none;stroke-opacity:1"
         id="rect6392"
         width="14.999998"
         height="14.999972"
         x="34.999996"
         y="892.36224" />
    </g>
    <g
       id="g6394"
       transform="translate(-7.7683665e-7,59.999974)">
      <rect
         y="893.36224"
         x="65.999992"
         height="14.999972"
         width="94.999977"
         id="rect6396"
         style="opacity:1;fill:#3e883e;fill-opacity:1;stroke:none;stroke-width:5;stroke-linecap:round;stroke-linejoin:round;stroke-miterlimit:4;stroke-dasharray:none;stroke-opacity:1" />
      <rect
         style="opacity:1;fill:#55d57a;fill-opacity:1;stroke:none;stroke-width:5;stroke-linecap:round;stroke-linejoin:round;stroke-miterlimit:4;stroke-dasharray:none;stroke-opacity:1"
         id="rect6398"
         width="94.999977"
         height="14.999972"
         x="64.999992"
         y="892.36224" />
      <rect
         style="opacity:0.5;fill:#1d541d;fill-opacity:1;stroke:none;stroke-width:5;stroke-linecap:round;stroke-linejoin:round;stroke-miterlimit:4;stroke-dasharray:none;stroke-opacity:1"
         id="rect6400"
         width="14.999998"
         height="14.999972"
         x="35.999996"
         y="893.36224" />
      <rect
         y="892.36224"
         x="34.999996"
         height="14.999972"
         width="14.999998"
         id="rect6402"
         style="opacity:1;fill:#55d57a;fill-opacity:1;stroke:none;stroke-width:5;stroke-linecap:round;stroke-linejoin:round;stroke-miterlimit:4;stroke-dasharray:none;stroke-opacity:1" />
    </g>
    <g
       transform="translate(-7.7683665e-7,79.999972)"
       id="g6404">
      <rect
         style="opacity:1;fill:#3e883e;fill-opacity:1;stroke:none;stroke-width:5;stroke-linecap:round;stroke-linejoin:round;stroke-miterlimit:4;stroke-dasharray:none;stroke-opacity:1"
         id="rect6406"
         width="94.999977"
         height="14.999972"
         x="65.999992"
         y="893.36224" />
      <rect
         y="892.36224"
         x="64.999992"
         height="14.999972"
         width="94.999977"
         id="rect6408"
         style="opacity:1;fill:#55d57a;fill-opacity:1;stroke:none;stroke-width:5;stroke-linecap:round;stroke-linejoin:round;stroke-miterlimit:4;stroke-dasharray:none;stroke-opacity:1" />
      <rect
         y="893.36224"
         x="35.999996"
         height="14.999972"
         width="14.999998"
         id="rect6410"
         style="opacity:0.5;fill:#1d541d;fill-opacity:1;stroke:none;stroke-width:5;stroke-linecap:round;stroke-linejoin:round;stroke-miterlimit:4;stroke-dasharray:none;stroke-opacity:1" />
      <rect
         style="opacity:1;fill:#55d57a;fill-opacity:1;stroke:none;stroke-width:5;stroke-linecap:round;stroke-linejoin:round;stroke-miterlimit:4;stroke-dasharray:none;stroke-opacity:1"
         id="rect6412"
         width="14.999998"
         height="14.999972"
         x="34.999996"
         y="892.36224" />
    </g>
    <g
       id="g6370"
       transform="translate(239.99998,0)">
      <path
         id="rect5537"
         transform="translate(0,852.36223)"
         d="m -82.378906,43.126953 c 0.04887,0.0074 0.09865,0.01256 0.146484,0.02148 -0.0479,-0.0089 -0.09753,-0.01414 -0.146484,-0.02148 z m 0.826172,0.210938 c 0.03809,0.0145 0.07409,0.0313 0.111328,0.04687 -0.03737,-0.0156 -0.0731,-0.03236 -0.111328,-0.04687 z m 0.685546,0.345703 c 0.01312,0.0085 0.02804,0.01481 0.04102,0.02344 -0.01303,-0.0087 -0.02784,-0.01493 -0.04102,-0.02344 z m 0.544922,0.433594 c 0.173513,0.167144 0.333665,0.346135 0.470704,0.541015 1.503238,2.13775 0.793552,5.739761 -2.564454,6.306641 l -16.503906,3.015625 -25.791018,65.044921 c 4.58474,3.40218 8.03094,6.5261 10.06836,9.44141 2.43979,3.491 3.35205,7.13062 2.51367,10.27343 -0.8384,3.14281 -3.1185,5.17281 -5.23632,6.35157 -2.11784,1.1788 -4.08736,1.71875 -6.10743,1.71875 l -71.14453,0 c -1.31137,0.0185 -2.29729,-0.45441 -2.96875,-1.17188 0.027,0.0288 0.0482,0.0618 0.0762,0.0899 l 4.5625,4.5625 c 0.76637,-1.32351 2.18285,-2.22279 3.82227,-2.22266 2.44724,-2e-4 4.43184,1.98249 4.43164,4.42969 2e-4,2.4472 -1.9844,4.43184 -4.43164,4.43164 -1.22363,1e-4 -2.33095,-0.49696 -3.13281,-1.29883 L -147.88867,200 -40,200 -40,84.429688 -80.267578,44.162109 c -0.0165,-0.0165 -0.03784,-0.02871 -0.05469,-0.04492 z m -24.365234,3.617187 c -0.34321,0.362132 -0.61919,0.791687 -0.80859,1.269531 0.1894,-0.477844 0.46753,-0.907413 0.81054,-1.269531 0,0 -0.002,0 -0.002,0 z m -90.91602,69.294925 21.83399,21.83398 50.29687,0 c 0.0652,0 1.36872,-0.23065 2.24219,-0.7168 0.8735,-0.48617 1.30261,-1.01697 1.41992,-1.45703 0.11737,-0.44014 0.23194,-1.40691 -1.34961,-3.66992 -1.48289,-2.12181 -4.48859,-5.09889 -9.57617,-8.69531 l -62.45898,-6.16211 c -0.93698,-0.0926 -1.77715,-0.50699 -2.40821,-1.13281 z m 0.98633,21.83398 c -0.30201,-0.004 -0.58153,0.0239 -0.84961,0.0684 0.268,-0.0444 0.5477,-0.0726 0.84961,-0.0684 z m -1.11523,0.12695 c -0.17657,0.0412 -0.34538,0.0914 -0.50586,0.15235 0.16028,-0.0609 0.32953,-0.11119 0.50586,-0.15235 z m -0.73633,0.24415 c -0.18224,0.0835 -0.3524,0.17963 -0.51172,0.2871 0.15918,-0.10739 0.32966,-0.20366 0.51172,-0.2871 z m -0.625,0.35742 c -0.18611,0.1359 -0.35319,0.28848 -0.50586,0.45312 0.15267,-0.16476 0.31972,-0.31712 0.50586,-0.45312 z m -0.63477,0.61132 c -0.10116,0.1223 -0.19499,0.24937 -0.27929,0.38282 0.0841,-0.13326 0.17837,-0.26067 0.27929,-0.38282 z m -0.40429,0.59571 c -0.0788,0.14446 -0.14855,0.2921 -0.20899,0.44531 0.0603,-0.15303 0.1304,-0.301 0.20899,-0.44531 z m -0.27344,0.60351 c -0.0743,0.21382 -0.13222,0.43261 -0.17187,0.65625 0.0396,-0.22323 0.0979,-0.4428 0.17187,-0.65625 z m -0.18945,0.80078 c -0.0251,0.17475 -0.0388,0.35065 -0.043,0.52735 0.004,-0.1767 0.0179,-0.35259 0.043,-0.52735 z m -0.043,0.75782 c 0.005,0.16385 0.0185,0.3261 0.041,0.48828 -0.0224,-0.16154 -0.0365,-0.32508 -0.041,-0.48828 z m 0.0664,0.67968 c 0.0409,0.22259 0.0967,0.44171 0.17188,0.6543 -0.075,-0.2124 -0.13109,-0.43194 -0.17188,-0.6543 z m 0.21094,0.7461 c 0.0672,0.17621 0.14707,0.34689 0.23828,0.51172 -0.0913,-0.16502 -0.1711,-0.33529 -0.23828,-0.51172 z m 0.35742,0.70703 c 0.0869,0.13702 0.18246,0.26741 0.28711,0.39258 -0.10456,-0.12507 -0.20031,-0.25568 -0.28711,-0.39258 z m 75.02344,2.97461 c 2.44725,-2e-4 4.43184,1.98249 4.43164,4.42969 2e-4,2.4472 -1.98439,4.43184 -4.43164,4.43164 -2.44725,2e-4 -4.43184,-1.98444 -4.43164,-4.43164 -2e-4,-2.4472 1.98439,-4.42989 4.43164,-4.42969 z m -70.33203,3.03711 c -0.0389,0.11239 -0.0756,0.22558 -0.10547,0.3418 0.0286,-0.11682 0.0678,-0.22882 0.10547,-0.3418 z m -0.16797,0.64453 c -0.0441,0.24346 -0.0762,0.49121 -0.0762,0.74805 -2e-5,-0.2564 0.0344,-0.50357 0.0762,-0.74805 z"
         style="opacity:1;fill:#1b391e;fill-opacity:0.29803922;stroke:none;stroke-width:5;stroke-linecap:round;stroke-linejoin:round;stroke-miterlimit:4;stroke-dasharray:none;stroke-opacity:1"
         inkscape:connector-curvature="0" />
      <path
         sodipodi:nodetypes="ccccccccccscssccsssscccscccccccccccc"
         style="color:#000000;font-style:normal;font-variant:normal;font-weight:normal;font-stretch:normal;font-size:medium;line-height:normal;font-family:sans-serif;text-indent:0;text-align:start;text-decoration:none;text-decoration-line:none;text-decoration-style:solid;text-decoration-color:#000000;letter-spacing:normal;word-spacing:normal;text-transform:none;direction:ltr;block-progression:tb;writing-mode:lr-tb;baseline-shift:baseline;text-anchor:start;white-space:normal;clip-rule:nonzero;display:inline;overflow:visible;visibility:visible;opacity:0.75;isolation:auto;mix-blend-mode:normal;color-interpolation:sRGB;color-interpolation-filters:linearRGB;solid-color:#000000;solid-opacity:1;fill:#9ccd9e;fill-opacity:0.63921571;fill-rule:evenodd;stroke:none;stroke-width:9.99999905;stroke-linecap:round;stroke-linejoin:round;stroke-miterlimit:4;stroke-dasharray:none;stroke-dashoffset:0;stroke-opacity:1;color-rendering:auto;image-rendering:auto;shape-rendering:auto;text-rendering:auto;enable-background:accumulate"
         d="m -83.176149,895.43404 c -0.225269,0.006 -0.449644,0.0306 -0.6707,0.0743 l -18.669381,3.41253 c -1.34829,0.24687 -2.47425,1.17098 -2.97933,2.44523 l -8.20678,20.69392 -83.31752,2.068 c -2.3226,0.0575 -4.10074,2.08671 -3.85342,4.39681 l 4.11579,38.46751 c 0.2007,1.87234 1.68759,3.34693 3.56155,3.53203 l 62.46058,6.16207 c 5.08758,3.59642 8.09323,6.57402 9.57612,8.69583 1.58155,2.26301 1.46654,3.23009 1.34917,3.67023 -0.11731,0.44006 -0.5471,0.97013 -1.4206,1.4563 -0.87347,0.48615 -2.17669,0.71572 -2.24186,0.71572 l -71.14554,0 c -5.37475,-0.0759 -5.37475,8.02497 0,7.94905 l 71.14554,0 c 2.02007,0 3.98989,-0.53989 6.10773,-1.71869 2.11782,-1.17876 4.39679,-3.21022 5.23519,-6.35303 0.83838,-3.14281 -0.0738,-6.78222 -2.51359,-10.27322 -2.03742,-2.91531 -5.48353,-6.03885 -10.06827,-9.44103 l 25.792471,-65.04401 16.50204,-3.0166 c 3.358004,-0.56688 4.06906,-4.16831 2.565822,-6.30606 -0.674969,-0.95987 -1.796361,-1.62465 -3.325012,-1.58713 z M -189.12515,1000.4297 c -2.44725,-2e-4 -4.43118,1.9838 -4.43098,4.431 -2e-4,2.4472 1.98373,4.4312 4.43098,4.431 2.44724,2e-4 4.43116,-1.9838 4.43096,-4.431 2e-4,-2.4472 -1.98372,-4.4312 -4.43096,-4.431 z m 66.14478,0 c -2.44725,-2e-4 -4.43118,1.9838 -4.43098,4.431 -2e-4,2.4472 1.98373,4.4312 4.43098,4.431 2.44725,2e-4 4.43118,-1.9838 4.43098,-4.431 2e-4,-2.4472 -1.98373,-4.4312 -4.43098,-4.431 z"
         id="path5535"
         inkscape:connector-curvature="0" />
    </g>
  </g>
  <g
     inkscape:groupmode="layer"
     id="layer3"
     inkscape:label="helpers"
     style="display:none">
    <g
       style="display:inline;opacity:1;stroke:#3c903c;stroke-opacity:1"
       id="g4649"
       transform="translate(-244.10716,-952.71949)">
      <g
         id="g4651"
         style="stroke:#3c903c;stroke-width:9.99999905;stroke-miterlimit:4;stroke-dasharray:none;stroke-opacity:1">
        <path
           sodipodi:nodetypes="ccccc"
           inkscape:connector-curvature="0"
           id="path4653"
           d="m 192.43406,905.38503 -23.48605,4.29315 -34.85026,87.88327 c 30.04104,20.57585 12.83413,28.31745 7.58764,28.31745 l -89.50191,0"
           style="fill:none;fill-rule:evenodd;stroke:#3c903c;stroke-width:9.99999905;stroke-linecap:round;stroke-linejoin:round;stroke-miterlimit:4;stroke-dasharray:none;stroke-opacity:1" />
        <path
           inkscape:connector-curvature="0"
           id="path4655"
           d="m 157.14286,938.7908 -107.857146,2.67857 5.178572,48.39286 79.642854,7.85714"
           style="fill:none;fill-rule:evenodd;stroke:#3c903c;stroke-width:9.99999905;stroke-linecap:round;stroke-linejoin:round;stroke-miterlimit:4;stroke-dasharray:none;stroke-opacity:1" />
      </g>
      <ellipse
         style="opacity:1;fill:none;fill-opacity:1;stroke:#3c903c;stroke-width:4.99999952;stroke-linecap:round;stroke-linejoin:round;stroke-miterlimit:4;stroke-dasharray:none;stroke-opacity:1"
         id="ellipse4657"
         cx="63.76585"
         cy="1036.0135"
         rx="7.2152905"
         ry="7.2152958" />
      <ellipse
         ry="7.2152958"
         rx="7.2152905"
         cy="1036.0135"
         cx="145.73013"
         id="ellipse4659"
         style="opacity:1;fill:none;fill-opacity:1;stroke:#3c903c;stroke-width:4.99999952;stroke-linecap:round;stroke-linejoin:round;stroke-miterlimit:4;stroke-dasharray:none;stroke-opacity:1" />
      <g
         id="g4661"
         style="stroke:#3c903c;stroke-width:2.99999952;stroke-miterlimit:4;stroke-dasharray:none;stroke-opacity:1">
        <g
           style="stroke:#3c903c;stroke-width:2.99999952;stroke-miterlimit:4;stroke-dasharray:none;stroke-opacity:1"
           id="g4663">
          <path
             style="fill:none;fill-rule:evenodd;stroke:#3c903c;stroke-width:2.99999952;stroke-linecap:butt;stroke-linejoin:miter;stroke-miterlimit:4;stroke-dasharray:none;stroke-opacity:1"
             d="m 65.803572,942.27294 0,48.30358"
             id="path4665"
             inkscape:connector-curvature="0" />
          <path
             style="fill:none;fill-rule:evenodd;stroke:#3c903c;stroke-width:2.99999952;stroke-linecap:butt;stroke-linejoin:miter;stroke-miterlimit:4;stroke-dasharray:none;stroke-opacity:1"
             d="m 83.281256,940.93366 0,52.5"
             id="path4667"
             inkscape:connector-curvature="0" />
          <path
             style="fill:none;fill-rule:evenodd;stroke:#3c903c;stroke-width:2.99999952;stroke-linecap:butt;stroke-linejoin:miter;stroke-miterlimit:4;stroke-dasharray:none;stroke-opacity:1"
             d="m 100.75893,939.77294 0,55.44643"
             id="path4669"
             inkscape:connector-curvature="0" />
          <path
             style="fill:none;fill-rule:evenodd;stroke:#3c903c;stroke-width:2.99999952;stroke-linecap:butt;stroke-linejoin:miter;stroke-miterlimit:4;stroke-dasharray:none;stroke-opacity:1"
             d="m 118.23661,939.68366 0,56.60714"
             id="path4671"
             inkscape:connector-curvature="0" />
          <path
             style="fill:none;fill-rule:evenodd;stroke:#3c903c;stroke-width:2.99999952;stroke-linecap:butt;stroke-linejoin:miter;stroke-miterlimit:4;stroke-dasharray:none;stroke-opacity:1"
             d="m 135.71429,938.7908 0,51.25"
             id="path4673"
             inkscape:connector-curvature="0" />
        </g>
        <g
           id="g4675"
           style="stroke:#3c903c;stroke-width:2.99999952;stroke-miterlimit:4;stroke-dasharray:none;stroke-opacity:1">
          <path
             style="fill:none;fill-rule:evenodd;stroke:#3c903c;stroke-width:2.99999952;stroke-linecap:butt;stroke-linejoin:miter;stroke-miterlimit:4;stroke-dasharray:none;stroke-opacity:1"
             d="m 52.142857,959.32652 95.535713,0"
             id="path4677"
             inkscape:connector-curvature="0" />
          <path
             style="fill:none;fill-rule:evenodd;stroke:#3c903c;stroke-width:2.99999952;stroke-linecap:butt;stroke-linejoin:miter;stroke-miterlimit:4;stroke-dasharray:none;stroke-opacity:1"
             d="m 53.75,975.39794 89.28571,0"
             id="path4679"
             inkscape:connector-curvature="0" />
        </g>
      </g>
    </g>
    <path
       transform="translate(0,-852.36233)"
       inkscape:connector-curvature="0"
       id="path4863"
       d="m 7.5574324,820.0323 a 2.5388292,2.5388292 0 0 0 -0.42839,0.0477 l -11.92436,2.17953 a 2.5388292,2.5388292 0 0 0 -1.90294,1.56184 l -5.2417704,13.21846 -53.215861,1.31988 a 2.5388292,2.5388292 0 0 0 -2.461236,2.80828 l 2.628825,24.56971 a 2.5388292,2.5388292 0 0 0 2.274794,2.25592 l 39.893318,3.93579 c 3.25004,2.29727 5.17012,4.19985 6.11737,5.55517 1.01015,1.44531 0.93671,2.06308 0.86173,2.34414 -0.0749,0.28114 -0.34945,0.6186 -0.90734,0.92918 -0.55791,0.31058 -1.3903,0.45708 -1.43192,0.45708 l -45.441492,0 a 2.5388292,2.5388292 0 1 0 0,5.07725 l 1.706601,0 c -0.47746,0.75872 -0.758589,1.65189 -0.758602,2.60788 0,2.70924 2.223208,4.93141 4.932374,4.93141 2.709169,0 4.932379,-2.22217 4.932379,-4.93141 -2e-5,-0.95599 -0.28115,-1.84916 -0.75861,-2.60788 l 33.26725,0 c -0.47747,0.75872 -0.75859,1.65189 -0.7586,2.60788 0,2.70924 2.2232,4.93141 4.93237,4.93141 2.70917,0 4.93238,-2.22217 4.93236,-4.93141 -10e-6,-1.75824 -0.9401,-3.30773 -2.33826,-4.18164 1.10747,-0.78249 2.15975,-1.94243 2.59708,-3.58183 0.5355,-2.00741 -0.0471,-4.33085 -1.60544,-6.56055 -1.30133,-1.86204 -3.50241,-3.85815 -6.43073,-6.03108 l 16.4739704,-41.5444 10.54002,-1.92682 a 2.5388292,2.5388292 0 0 0 -0.48489,-5.04139 z m -21.5312904,22.13523 -2.78944,7.03458 -3.6869,0 0,-6.87396 6.47634,-0.16062 z m -7.99949,0.19831 0,6.83627 -7.35095,0 0,-6.65383 7.35095,-0.18244 z m -8.8741,0.22114 0,6.61513 -7.34996,0 0,-6.43268 7.34996,-0.18245 z m -8.87311,0.22014 0,6.39499 -7.35096,0 0,-6.21253 7.35096,-0.18246 z m -8.87411,0.22015 0,6.17484 -7.35095,0 0,-5.9924 7.35095,-0.18244 z m -8.874105,0.22113 0,5.95371 -4.181703,0 -0.62473,-5.83475 4.806433,-0.11896 z m -4.019077,7.47687 4.019077,0 0,6.63696 -3.309069,0 -0.710008,-6.63696 z m 5.542232,0 7.35095,0 0,6.63696 -7.35095,0 0,-6.63696 z m 8.8741,0 7.35096,0 0,6.63696 -7.35096,0 0,-6.63696 z m 8.87411,0 7.34996,0 0,6.63696 -7.34996,0 0,-6.63696 z m 8.87311,0 7.35095,0 0,6.63696 -7.35095,0 0,-6.63696 z m 8.8741,0 3.08298,0 -2.63278,6.63696 -0.4502,0 0,-6.63696 z m -40.164021,8.16011 3.145446,0 0,4.5239 -2.690287,-0.26587 -0.455159,-4.25803 z m 4.668601,0 7.35095,0 0,5.39943 -7.35095,-0.72581 0,-4.67362 z m 8.8741,0 7.35096,0 0,6.27504 -7.35096,-0.72582 0,-5.54922 z m 8.87411,0 7.34996,0 0,7.15065 -7.34996,-0.72589 0,-6.42476 z m 8.87311,0 7.35095,0 0,3.45385 -1.74426,4.39989 -5.60669,-0.55338 0,-7.30036 z m -28.417169,27.61988 c 1.337209,0 2.393779,1.05744 2.393799,2.39472 0,1.33727 -1.05657,2.39293 -2.393799,2.39293 -1.337213,0 -2.393802,-1.05566 -2.393802,-2.39293 2.5e-5,-1.33728 1.056602,-2.39472 2.393802,-2.39472 z m 41.614789,0 c 1.3372,0 2.39378,1.05744 2.39379,2.39472 0,1.33727 -1.05659,2.39293 -2.39379,2.39293 -1.33722,0 -2.3938,-1.05566 -2.3938,-2.39293 2e-5,-1.33728 1.05659,-2.39472 2.3938,-2.39472 z"
       style="color:#000000;font-style:normal;font-variant:normal;font-weight:normal;font-stretch:normal;font-size:medium;line-height:normal;font-family:sans-serif;text-indent:0;text-align:start;text-decoration:none;text-decoration-line:none;text-decoration-style:solid;text-decoration-color:#000000;letter-spacing:normal;word-spacing:normal;text-transform:none;direction:ltr;block-progression:tb;writing-mode:lr-tb;baseline-shift:baseline;text-anchor:start;white-space:normal;clip-rule:nonzero;display:inline;overflow:visible;visibility:visible;opacity:1;isolation:auto;mix-blend-mode:normal;color-interpolation:sRGB;color-interpolation-filters:linearRGB;solid-color:#000000;solid-opacity:1;fill:#000000;fill-opacity:1;fill-rule:evenodd;stroke:none;stroke-width:9.99999905;stroke-linecap:round;stroke-linejoin:round;stroke-miterlimit:4;stroke-dasharray:none;stroke-dashoffset:0;stroke-opacity:1;color-rendering:auto;image-rendering:auto;shape-rendering:auto;text-rendering:auto;enable-background:accumulate" />
    <g
       transform="translate(-244.10716,-787.71949)"
       id="g4865"
       style="display:inline;opacity:1;stroke:#3c903c;stroke-opacity:1">
      <g
         style="stroke:#3c903c;stroke-width:9.99999905;stroke-miterlimit:4;stroke-dasharray:none;stroke-opacity:1"
         id="g4867">
        <path
           style="fill:none;fill-rule:evenodd;stroke:#3c903c;stroke-width:9.99999905;stroke-linecap:round;stroke-linejoin:round;stroke-miterlimit:4;stroke-dasharray:none;stroke-opacity:1"
           d="m 192.43406,905.38503 -23.48605,4.29315 -34.85026,87.88327 c 30.04104,20.57585 12.83413,28.31745 7.58764,28.31745 l -89.50191,0"
           id="path4869"
           inkscape:connector-curvature="0"
           sodipodi:nodetypes="ccccc" />
        <path
           style="fill:#3c903c;fill-opacity:1;fill-rule:evenodd;stroke:#3c903c;stroke-width:9.99999905;stroke-linecap:round;stroke-linejoin:round;stroke-miterlimit:4;stroke-dasharray:none;stroke-opacity:1"
           d="m 157.14286,938.7908 -107.857146,2.67857 5.178572,48.39286 79.642854,7.85714"
           id="path4871"
           inkscape:connector-curvature="0" />
      </g>
      <ellipse
         ry="5.5737982"
         rx="5.5737939"
         cy="1038.0338"
         cx="59.093895"
         id="ellipse4873"
         style="opacity:1;fill:#3c903c;fill-opacity:1;stroke:none;stroke-width:4.99999952;stroke-linecap:round;stroke-linejoin:round;stroke-miterlimit:4;stroke-dasharray:none;stroke-opacity:1" />
      <ellipse
         style="opacity:1;fill:#3c903c;fill-opacity:1;stroke:none;stroke-width:4.99999952;stroke-linecap:round;stroke-linejoin:round;stroke-miterlimit:4;stroke-dasharray:none;stroke-opacity:1"
         id="ellipse4897"
         cx="142.30521"
         cy="1038.0338"
         rx="5.5737939"
         ry="5.5737982" />
    </g>
  </g>
</svg>
